<mxfile host="app.diagrams.net" modified="2023-06-28T15:27:45.028Z" agent="Mozilla/5.0 (Windows NT 10.0; Win64; x64) AppleWebKit/537.36 (KHTML, like Gecko) Chrome/114.0.0.0 Safari/537.36" version="21.5.1" etag="Ox7-Yi5H1ZLhWzAtVPMc" type="github">
  <diagram name="PÃ¡gina-1" id="GCsZ6mDVFPROjNfrWGLy">
    <mxGraphModel>
      <root>
        <mxCell id="0" />
        <mxCell id="1" parent="0" />
      </root>
    </mxGraphModel>
  </diagram>
</mxfile>
